# xmcd
#
# Track frame offsets: 
#        150
#        39112
#        57822
#        67797
#        94705
#        114870
#        132397
#        160265
#        216240
#        254915
#
# Disc length: 3470 seconds
#
# Revision: 0
# Processed by: cddbd v1.5.2PL0 Copyright (c) Steve Scherf et al.
# Submitted via: ExactAudioCopyFreeDBPlugin 1.0
#
DISCID=840d8c0a
DTITLE=潘娥青, 徐紅, 傅丹 - 琵琶新秀
DYEAR=1990
DGENRE=中樂
TTITLE0=潘娥青 - 霸王卸甲
TTITLE1=潘娥青 - 彩霞映井岡
TTITLE2=傅丹 - 送我一支玫瑰花
TTITLE3=潘娥青 - 火把節之夜
TTITLE4=徐紅 - 趕花會
TTITLE5=傅丹 - 上茶山
TTITLE6=徐紅 - 十面埋伏
TTITLE7=徐紅 - 塞上曲
TTITLE8=潘娥青 - 狼牙山五壯士
TTITLE9=潘娥青 - 野蜂飛舞
EXTD=
EXTT0=
EXTT1=
EXTT2=
EXTT3=
EXTT4=
EXTT5=
EXTT6=
EXTT7=
EXTT8=
EXTT9=
PLAYORDER=
